<svg width="557" height="150" viewBox="0 0 557 150" fill="none" xmlns="http://www.w3.org/2000/svg">
<rect width="119" height="120" fill="#DA0037"/>
<rect x="29.75" y="30" width="59.5" height="60" fill="black"/>
<path d="M177.128 98.896H200.552V106H168.392V39.088H177.128V98.896ZM257.83 77.68C257.83 79.344 257.734 81.104 257.542 82.96H215.494C215.814 88.144 217.574 92.208 220.774 95.152C224.038 98.032 227.974 99.472 232.582 99.472C236.358 99.472 239.494 98.608 241.99 96.88C244.55 95.088 246.342 92.72 247.366 89.776H256.774C255.366 94.832 252.55 98.96 248.326 102.16C244.102 105.296 238.854 106.864 232.582 106.864C227.59 106.864 223.11 105.744 219.142 103.504C215.238 101.264 212.166 98.096 209.926 94C207.686 89.84 206.566 85.04 206.566 79.6C206.566 74.16 207.654 69.392 209.83 65.296C212.006 61.2 215.046 58.064 218.95 55.888C222.918 53.648 227.462 52.528 232.582 52.528C237.574 52.528 241.99 53.616 245.83 55.792C249.67 57.968 252.614 60.976 254.662 64.816C256.774 68.592 257.83 72.88 257.83 77.68ZM248.806 75.856C248.806 72.528 248.07 69.68 246.598 67.312C245.126 64.88 243.11 63.056 240.55 61.84C238.054 60.56 235.27 59.92 232.198 59.92C227.782 59.92 224.006 61.328 220.87 64.144C217.798 66.96 216.038 70.864 215.59 75.856H248.806ZM266.097 79.504C266.097 74.128 267.185 69.424 269.361 65.392C271.537 61.296 274.513 58.128 278.289 55.888C282.129 53.648 286.385 52.528 291.057 52.528C295.665 52.528 299.665 53.52 303.057 55.504C306.449 57.488 308.977 59.984 310.641 62.992V53.392H319.473V106H310.641V96.208C308.913 99.28 306.321 101.84 302.865 103.888C299.473 105.872 295.505 106.864 290.961 106.864C286.289 106.864 282.065 105.712 278.289 103.408C274.513 101.104 271.537 97.872 269.361 93.712C267.185 89.552 266.097 84.816 266.097 79.504ZM310.641 79.6C310.641 75.632 309.841 72.176 308.241 69.232C306.641 66.288 304.465 64.048 301.713 62.512C299.025 60.912 296.049 60.112 292.785 60.112C289.521 60.112 286.545 60.88 283.857 62.416C281.169 63.952 279.025 66.192 277.425 69.136C275.825 72.08 275.025 75.536 275.025 79.504C275.025 83.536 275.825 87.056 277.425 90.064C279.025 93.008 281.169 95.28 283.857 96.88C286.545 98.416 289.521 99.184 292.785 99.184C296.049 99.184 299.025 98.416 301.713 96.88C304.465 95.28 306.641 93.008 308.241 90.064C309.841 87.056 310.641 83.568 310.641 79.6ZM342.972 61.936C344.508 58.928 346.684 56.592 349.5 54.928C352.38 53.264 355.868 52.432 359.964 52.432V61.456H357.66C347.868 61.456 342.972 66.768 342.972 77.392V106H334.236V53.392H342.972V61.936ZM395.68 52.432C402.08 52.432 407.264 54.384 411.232 58.288C415.2 62.128 417.184 67.696 417.184 74.992V106H408.544V76.24C408.544 70.992 407.232 66.992 404.608 64.24C401.984 61.424 398.4 60.016 393.856 60.016C389.248 60.016 385.568 61.456 382.816 64.336C380.128 67.216 378.784 71.408 378.784 76.912V106H370.048V53.392H378.784V60.88C380.512 58.192 382.848 56.112 385.792 54.64C388.8 53.168 392.096 52.432 395.68 52.432ZM479.455 77.68C479.455 79.344 479.359 81.104 479.167 82.96H437.119C437.439 88.144 439.199 92.208 442.399 95.152C445.663 98.032 449.599 99.472 454.207 99.472C457.983 99.472 461.119 98.608 463.615 96.88C466.175 95.088 467.967 92.72 468.991 89.776H478.399C476.991 94.832 474.175 98.96 469.951 102.16C465.727 105.296 460.479 106.864 454.207 106.864C449.215 106.864 444.735 105.744 440.767 103.504C436.863 101.264 433.791 98.096 431.551 94C429.311 89.84 428.191 85.04 428.191 79.6C428.191 74.16 429.279 69.392 431.455 65.296C433.631 61.2 436.671 58.064 440.575 55.888C444.543 53.648 449.087 52.528 454.207 52.528C459.199 52.528 463.615 53.616 467.455 55.792C471.295 57.968 474.239 60.976 476.287 64.816C478.399 68.592 479.455 72.88 479.455 77.68ZM470.431 75.856C470.431 72.528 469.695 69.68 468.223 67.312C466.751 64.88 464.735 63.056 462.175 61.84C459.679 60.56 456.895 59.92 453.823 59.92C449.407 59.92 445.631 61.328 442.495 64.144C439.423 66.96 437.663 70.864 437.215 75.856H470.431ZM499.722 61.936C501.258 58.928 503.434 56.592 506.25 54.928C509.13 53.264 512.618 52.432 516.714 52.432V61.456H514.41C504.618 61.456 499.722 66.768 499.722 77.392V106H490.986V53.392H499.722V61.936Z" fill="white"/>
<path d="M218.78 138.9H212.7L211.58 142H209.66L214.7 128.14H216.8L221.82 142H219.9L218.78 138.9ZM218.26 137.42L215.74 130.38L213.22 137.42H218.26ZM231.169 127.2V142H229.349V127.2H231.169ZM244.27 136.1C244.27 136.447 244.25 136.813 244.21 137.2H235.45C235.517 138.28 235.884 139.127 236.55 139.74C237.23 140.34 238.05 140.64 239.01 140.64C239.797 140.64 240.45 140.46 240.97 140.1C241.504 139.727 241.877 139.233 242.09 138.62H244.05C243.757 139.673 243.17 140.533 242.29 141.2C241.41 141.853 240.317 142.18 239.01 142.18C237.97 142.18 237.037 141.947 236.21 141.48C235.397 141.013 234.757 140.353 234.29 139.5C233.824 138.633 233.59 137.633 233.59 136.5C233.59 135.367 233.817 134.373 234.27 133.52C234.724 132.667 235.357 132.013 236.17 131.56C236.997 131.093 237.944 130.86 239.01 130.86C240.05 130.86 240.97 131.087 241.77 131.54C242.57 131.993 243.184 132.62 243.61 133.42C244.05 134.207 244.27 135.1 244.27 136.1ZM242.39 135.72C242.39 135.027 242.237 134.433 241.93 133.94C241.624 133.433 241.204 133.053 240.67 132.8C240.15 132.533 239.57 132.4 238.93 132.4C238.01 132.4 237.224 132.693 236.57 133.28C235.93 133.867 235.564 134.68 235.47 135.72H242.39ZM245.993 136.48C245.993 135.36 246.219 134.38 246.673 133.54C247.126 132.687 247.746 132.027 248.533 131.56C249.333 131.093 250.219 130.86 251.193 130.86C252.153 130.86 252.986 131.067 253.693 131.48C254.399 131.893 254.926 132.413 255.273 133.04V131.04H257.113V142H255.273V139.96C254.913 140.6 254.373 141.133 253.653 141.56C252.946 141.973 252.119 142.18 251.173 142.18C250.199 142.18 249.319 141.94 248.533 141.46C247.746 140.98 247.126 140.307 246.673 139.44C246.219 138.573 245.993 137.587 245.993 136.48ZM255.273 136.5C255.273 135.673 255.106 134.953 254.773 134.34C254.439 133.727 253.986 133.26 253.413 132.94C252.853 132.607 252.233 132.44 251.553 132.44C250.873 132.44 250.253 132.6 249.693 132.92C249.133 133.24 248.686 133.707 248.353 134.32C248.019 134.933 247.853 135.653 247.853 136.48C247.853 137.32 248.019 138.053 248.353 138.68C248.686 139.293 249.133 139.767 249.693 140.1C250.253 140.42 250.873 140.58 251.553 140.58C252.233 140.58 252.853 140.42 253.413 140.1C253.986 139.767 254.439 139.293 254.773 138.68C255.106 138.053 255.273 137.327 255.273 136.5ZM262.008 132.82C262.328 132.193 262.782 131.707 263.368 131.36C263.968 131.013 264.695 130.84 265.548 130.84V132.72H265.068C263.028 132.72 262.008 133.827 262.008 136.04V142H260.188V131.04H262.008V132.82ZM272.989 130.84C274.323 130.84 275.403 131.247 276.229 132.06C277.056 132.86 277.469 134.02 277.469 135.54V142H275.669V135.8C275.669 134.707 275.396 133.873 274.849 133.3C274.303 132.713 273.556 132.42 272.609 132.42C271.649 132.42 270.883 132.72 270.309 133.32C269.749 133.92 269.469 134.793 269.469 135.94V142H267.649V131.04H269.469V132.6C269.829 132.04 270.316 131.607 270.929 131.3C271.556 130.993 272.243 130.84 272.989 130.84ZM281.382 129.26C281.036 129.26 280.742 129.14 280.502 128.9C280.262 128.66 280.142 128.367 280.142 128.02C280.142 127.673 280.262 127.38 280.502 127.14C280.742 126.9 281.036 126.78 281.382 126.78C281.716 126.78 281.996 126.9 282.222 127.14C282.462 127.38 282.582 127.673 282.582 128.02C282.582 128.367 282.462 128.66 282.222 128.9C281.996 129.14 281.716 129.26 281.382 129.26ZM282.262 131.04V142H280.442V131.04H282.262ZM290.704 130.84C292.038 130.84 293.118 131.247 293.944 132.06C294.771 132.86 295.184 134.02 295.184 135.54V142H293.384V135.8C293.384 134.707 293.111 133.873 292.564 133.3C292.018 132.713 291.271 132.42 290.324 132.42C289.364 132.42 288.598 132.72 288.024 133.32C287.464 133.92 287.184 134.793 287.184 135.94V142H285.364V131.04H287.184V132.6C287.544 132.04 288.031 131.607 288.644 131.3C289.271 130.993 289.958 130.84 290.704 130.84ZM302.677 130.86C303.624 130.86 304.451 131.067 305.157 131.48C305.877 131.893 306.411 132.413 306.757 133.04V131.04H308.597V142.24C308.597 143.24 308.384 144.127 307.957 144.9C307.531 145.687 306.917 146.3 306.117 146.74C305.331 147.18 304.411 147.4 303.357 147.4C301.917 147.4 300.717 147.06 299.757 146.38C298.797 145.7 298.231 144.773 298.057 143.6H299.857C300.057 144.267 300.471 144.8 301.097 145.2C301.724 145.613 302.477 145.82 303.357 145.82C304.357 145.82 305.171 145.507 305.797 144.88C306.437 144.253 306.757 143.373 306.757 142.24V139.94C306.397 140.58 305.864 141.113 305.157 141.54C304.451 141.967 303.624 142.18 302.677 142.18C301.704 142.18 300.817 141.94 300.017 141.46C299.231 140.98 298.611 140.307 298.157 139.44C297.704 138.573 297.477 137.587 297.477 136.48C297.477 135.36 297.704 134.38 298.157 133.54C298.611 132.687 299.231 132.027 300.017 131.56C300.817 131.093 301.704 130.86 302.677 130.86ZM306.757 136.5C306.757 135.673 306.591 134.953 306.257 134.34C305.924 133.727 305.471 133.26 304.897 132.94C304.337 132.607 303.717 132.44 303.037 132.44C302.357 132.44 301.737 132.6 301.177 132.92C300.617 133.24 300.171 133.707 299.837 134.32C299.504 134.933 299.337 135.653 299.337 136.48C299.337 137.32 299.504 138.053 299.837 138.68C300.171 139.293 300.617 139.767 301.177 140.1C301.737 140.42 302.357 140.58 303.037 140.58C303.717 140.58 304.337 140.42 304.897 140.1C305.471 139.767 305.924 139.293 306.257 138.68C306.591 138.053 306.757 137.327 306.757 136.5ZM323.985 134.82C324.492 134.9 324.952 135.107 325.365 135.44C325.792 135.773 326.125 136.187 326.365 136.68C326.618 137.173 326.745 137.7 326.745 138.26C326.745 138.967 326.565 139.607 326.205 140.18C325.845 140.74 325.318 141.187 324.625 141.52C323.945 141.84 323.138 142 322.205 142H317.005V128.06H322.005C322.952 128.06 323.758 128.22 324.425 128.54C325.092 128.847 325.592 129.267 325.925 129.8C326.258 130.333 326.425 130.933 326.425 131.6C326.425 132.427 326.198 133.113 325.745 133.66C325.305 134.193 324.718 134.58 323.985 134.82ZM318.825 134.08H321.885C322.738 134.08 323.398 133.88 323.865 133.48C324.332 133.08 324.565 132.527 324.565 131.82C324.565 131.113 324.332 130.56 323.865 130.16C323.398 129.76 322.725 129.56 321.845 129.56H318.825V134.08ZM322.045 140.5C322.952 140.5 323.658 140.287 324.165 139.86C324.672 139.433 324.925 138.84 324.925 138.08C324.925 137.307 324.658 136.7 324.125 136.26C323.592 135.807 322.878 135.58 321.985 135.58H318.825V140.5H322.045ZM331.09 127.2V142H329.27V127.2H331.09ZM338.972 142.18C337.946 142.18 337.012 141.947 336.172 141.48C335.346 141.013 334.692 140.353 334.212 139.5C333.746 138.633 333.512 137.633 333.512 136.5C333.512 135.38 333.752 134.393 334.232 133.54C334.726 132.673 335.392 132.013 336.232 131.56C337.072 131.093 338.012 130.86 339.052 130.86C340.092 130.86 341.032 131.093 341.872 131.56C342.712 132.013 343.372 132.667 343.852 133.52C344.346 134.373 344.592 135.367 344.592 136.5C344.592 137.633 344.339 138.633 343.832 139.5C343.339 140.353 342.666 141.013 341.812 141.48C340.959 141.947 340.012 142.18 338.972 142.18ZM338.972 140.58C339.626 140.58 340.239 140.427 340.812 140.12C341.386 139.813 341.846 139.353 342.192 138.74C342.552 138.127 342.732 137.38 342.732 136.5C342.732 135.62 342.559 134.873 342.212 134.26C341.866 133.647 341.412 133.193 340.852 132.9C340.292 132.593 339.686 132.44 339.032 132.44C338.366 132.44 337.752 132.593 337.192 132.9C336.646 133.193 336.206 133.647 335.872 134.26C335.539 134.873 335.372 135.62 335.372 136.5C335.372 137.393 335.532 138.147 335.852 138.76C336.186 139.373 336.626 139.833 337.172 140.14C337.719 140.433 338.319 140.58 338.972 140.58ZM351.505 130.86C352.452 130.86 353.279 131.067 353.985 131.48C354.705 131.893 355.239 132.413 355.585 133.04V131.04H357.425V142.24C357.425 143.24 357.212 144.127 356.785 144.9C356.359 145.687 355.745 146.3 354.945 146.74C354.159 147.18 353.239 147.4 352.185 147.4C350.745 147.4 349.545 147.06 348.585 146.38C347.625 145.7 347.059 144.773 346.885 143.6H348.685C348.885 144.267 349.299 144.8 349.925 145.2C350.552 145.613 351.305 145.82 352.185 145.82C353.185 145.82 353.999 145.507 354.625 144.88C355.265 144.253 355.585 143.373 355.585 142.24V139.94C355.225 140.58 354.692 141.113 353.985 141.54C353.279 141.967 352.452 142.18 351.505 142.18C350.532 142.18 349.645 141.94 348.845 141.46C348.059 140.98 347.439 140.307 346.985 139.44C346.532 138.573 346.305 137.587 346.305 136.48C346.305 135.36 346.532 134.38 346.985 133.54C347.439 132.687 348.059 132.027 348.845 131.56C349.645 131.093 350.532 130.86 351.505 130.86ZM355.585 136.5C355.585 135.673 355.419 134.953 355.085 134.34C354.752 133.727 354.299 133.26 353.725 132.94C353.165 132.607 352.545 132.44 351.865 132.44C351.185 132.44 350.565 132.6 350.005 132.92C349.445 133.24 348.999 133.707 348.665 134.32C348.332 134.933 348.165 135.653 348.165 136.48C348.165 137.32 348.332 138.053 348.665 138.68C348.999 139.293 349.445 139.767 350.005 140.1C350.565 140.42 351.185 140.58 351.865 140.58C352.545 140.58 353.165 140.42 353.725 140.1C354.299 139.767 354.752 139.293 355.085 138.68C355.419 138.053 355.585 137.327 355.585 136.5Z" fill="white"/>
</svg>
