<svg width="231" height="60" viewBox="0 0 231 60" fill="none" xmlns="http://www.w3.org/2000/svg">
<rect width="60" height="60" fill="#DA0037"/>
<rect x="15" y="15" width="30" height="30" fill="black"/>
<path d="M87.72 41.04H97.48V44H84.08V16.12H87.72V41.04ZM121.346 32.2C121.346 32.8933 121.306 33.6267 121.226 34.4H103.706C103.839 36.56 104.572 38.2533 105.906 39.48C107.266 40.68 108.906 41.28 110.826 41.28C112.399 41.28 113.706 40.92 114.746 40.2C115.812 39.4533 116.559 38.4667 116.986 37.24H120.906C120.319 39.3467 119.146 41.0667 117.386 42.4C115.626 43.7067 113.439 44.36 110.826 44.36C108.746 44.36 106.879 43.8933 105.226 42.96C103.599 42.0267 102.319 40.7067 101.386 39C100.452 37.2667 99.9856 35.2667 99.9856 33C99.9856 30.7333 100.439 28.7467 101.346 27.04C102.252 25.3333 103.519 24.0267 105.146 23.12C106.799 22.1867 108.692 21.72 110.826 21.72C112.906 21.72 114.746 22.1733 116.346 23.08C117.946 23.9867 119.172 25.24 120.026 26.84C120.906 28.4133 121.346 30.2 121.346 32.2ZM117.586 31.44C117.586 30.0533 117.279 28.8667 116.666 27.88C116.052 26.8667 115.212 26.1067 114.146 25.6C113.106 25.0667 111.946 24.8 110.666 24.8C108.826 24.8 107.252 25.3867 105.946 26.56C104.666 27.7333 103.932 29.36 103.746 31.44H117.586ZM124.79 32.96C124.79 30.72 125.244 28.76 126.15 27.08C127.057 25.3733 128.297 24.0533 129.87 23.12C131.47 22.1867 133.244 21.72 135.19 21.72C137.11 21.72 138.777 22.1333 140.19 22.96C141.604 23.7867 142.657 24.8267 143.35 26.08V22.08H147.03V44H143.35V39.92C142.63 41.2 141.55 42.2667 140.11 43.12C138.697 43.9467 137.044 44.36 135.15 44.36C133.204 44.36 131.444 43.88 129.87 42.92C128.297 41.96 127.057 40.6133 126.15 38.88C125.244 37.1467 124.79 35.1733 124.79 32.96ZM143.35 33C143.35 31.3467 143.017 29.9067 142.35 28.68C141.684 27.4533 140.777 26.52 139.63 25.88C138.51 25.2133 137.27 24.88 135.91 24.88C134.55 24.88 133.31 25.2 132.19 25.84C131.07 26.48 130.177 27.4133 129.51 28.64C128.844 29.8667 128.51 31.3067 128.51 32.96C128.51 34.64 128.844 36.1067 129.51 37.36C130.177 38.5867 131.07 39.5333 132.19 40.2C133.31 40.84 134.55 41.16 135.91 41.16C137.27 41.16 138.51 40.84 139.63 40.2C140.777 39.5333 141.684 38.5867 142.35 37.36C143.017 36.1067 143.35 34.6533 143.35 33ZM156.822 25.64C157.462 24.3867 158.368 23.4133 159.542 22.72C160.742 22.0267 162.195 21.68 163.902 21.68V25.44H162.942C158.862 25.44 156.822 27.6533 156.822 32.08V44H153.182V22.08H156.822V25.64ZM178.783 21.68C181.45 21.68 183.61 22.4933 185.263 24.12C186.917 25.72 187.743 28.04 187.743 31.08V44H184.143V31.6C184.143 29.4133 183.597 27.7467 182.503 26.6C181.41 25.4267 179.917 24.84 178.023 24.84C176.103 24.84 174.57 25.44 173.423 26.64C172.303 27.84 171.743 29.5867 171.743 31.88V44H168.103V22.08H171.743V25.2C172.463 24.08 173.437 23.2133 174.663 22.6C175.917 21.9867 177.29 21.68 178.783 21.68ZM213.689 32.2C213.689 32.8933 213.649 33.6267 213.569 34.4H196.049C196.183 36.56 196.916 38.2533 198.249 39.48C199.609 40.68 201.249 41.28 203.169 41.28C204.743 41.28 206.049 40.92 207.089 40.2C208.156 39.4533 208.903 38.4667 209.329 37.24H213.249C212.663 39.3467 211.489 41.0667 209.729 42.4C207.969 43.7067 205.783 44.36 203.169 44.36C201.089 44.36 199.223 43.8933 197.569 42.96C195.943 42.0267 194.663 40.7067 193.729 39C192.796 37.2667 192.329 35.2667 192.329 33C192.329 30.7333 192.783 28.7467 193.689 27.04C194.596 25.3333 195.863 24.0267 197.489 23.12C199.143 22.1867 201.036 21.72 203.169 21.72C205.249 21.72 207.089 22.1733 208.689 23.08C210.289 23.9867 211.516 25.24 212.369 26.84C213.249 28.4133 213.689 30.2 213.689 32.2ZM209.929 31.44C209.929 30.0533 209.623 28.8667 209.009 27.88C208.396 26.8667 207.556 26.1067 206.489 25.6C205.449 25.0667 204.289 24.8 203.009 24.8C201.169 24.8 199.596 25.3867 198.289 26.56C197.009 27.7333 196.276 29.36 196.089 31.44H209.929ZM222.134 25.64C222.774 24.3867 223.681 23.4133 224.854 22.72C226.054 22.0267 227.507 21.68 229.214 21.68V25.44H228.254C224.174 25.44 222.134 27.6533 222.134 32.08V44H218.494V22.08H222.134V25.64Z" fill="white"/>
</svg>
